<?xml version="1.0" encoding="utf-8"?>
<!-- Generator: Adobe Illustrator 15.0.0, SVG Export Plug-In . SVG Version: 6.00 Build 0)  -->
<!DOCTYPE svg PUBLIC "-//W3C//DTD SVG 1.1//EN" "http://www.w3.org/Graphics/SVG/1.1/DTD/svg11.dtd">
<svg version="1.1" id="Layer_1" xmlns="http://www.w3.org/2000/svg" xmlns:xlink="http://www.w3.org/1999/xlink" x="0px" y="0px"
	 width="994.758px" height="231.652px" viewBox="0 0 994.758 231.652" enable-background="new 0 0 994.758 231.652"
	 xml:space="preserve">
<g>
	<g>
		<path fill="#FFFFFF" d="M83.394,66.809c-16.821,0-29.748,4.39-39.5,18.537c-1.463-13.655-2.439-18.537-10.73-18.537
			C28.287,66.809,0,71.69,0,80.958c0,11.216,14.388,1.945,14.388,20.971v105.338c0,16.095-11.462,8.542-11.462,17.802
			c0,4.146,2.683,6.584,9.023,6.584h36.577c6.342,0,11.458-1.944,11.458-6.342c0-9.752-13.896-2.191-13.896-18.044v-89.001
			c0-18.288,8.534-35.85,27.553-35.85c23.163,0,30.236,26.581,30.236,45.112c0,18.535-7.557,44.14-30.236,44.14
			c-6.097,0-13.166-0.977-15.114-0.977c-4.39,0-6.097,3.417-6.097,6.339c0,9.271,16.825,11.216,26.577,11.216
			c35.11,0,58.523-27.307,58.523-61.448C137.531,95.096,117.047,66.809,83.394,66.809z"/>
		<path fill="#FFFFFF" d="M259.209,161.424v-46.816c0-32.677-13.899-47.795-44.135-47.795c-13.653,0-26.823,4.632-37.793,13.167
			V16.092c0-10.973-1.223-16.095-8.78-16.095c-6.827,0-24.144,6.341-29.748,9.269c-2.687,1.462-6.347,2.194-6.347,5.852
			c0,7.315,13.169,4.634,13.169,16.583v129.724c0,16.096-11.463,8.541-11.463,17.802c0,4.146,2.691,6.585,9.03,6.585h36.575
			c6.342,0,9.021-2.438,9.021-6.585c0-9.261-11.458-1.706-11.458-17.802v-50.229c0-12.681,9.264-26.336,25.358-26.336
			c23.413,0,24.87,14.144,24.87,31.701v44.865c0,16.096-11.459,8.541-11.459,17.802c0,4.146,2.684,6.585,9.026,6.585h36.571
			c6.342,0,9.025-2.438,9.025-6.585C270.672,169.965,259.209,177.519,259.209,161.424z"/>
		<path fill="#FFFFFF" d="M334.812,66.812c-36.58,0-66.084,24.63-66.084,60.716c0,36.09,29.506,60.718,66.084,60.718
			c36.577,0,66.075-24.628,66.075-60.718C400.888,91.442,371.39,66.812,334.812,66.812z M334.812,173.617
			c-18.29,0-32.432-15.604-32.432-46.088c0-30.479,14.143-46.084,32.432-46.084c18.288,0,32.427,15.605,32.427,46.084
			C367.238,158.01,353.101,173.617,334.812,173.617z"/>
		<path fill="#FFFFFF" d="M605.483,66.812c-36.571,0-66.077,24.63-66.077,60.716c0,36.09,29.506,60.718,66.077,60.718
			c36.577,0,66.092-24.628,66.092-60.718C671.575,91.442,642.062,66.812,605.483,66.812z M605.483,173.617
			c-18.282,0-32.428-15.604-32.428-46.088c0-30.479,14.146-46.084,32.428-46.084c18.288,0,32.435,15.605,32.435,46.084
			C637.918,158.01,623.771,173.617,605.483,173.617z"/>
	</g>
	<g>
		<path fill="#E86A81" d="M789.273,162.159v-52.425c0-31.214-25.848-42.923-57.789-42.923c-21.703,0-45.604,7.318-45.604,19.024
			c0,6.579,4.882,9.75,10.732,9.75c15.605,0,17.312-14.14,36.578-14.14c16.099,0,24.386,10.724,24.386,24.87
			c-35.118,0-79.983,12.68-79.983,45.845c0,19.021,15.114,36.086,42.921,36.086c16.328,0,31.696-5.357,38.523-15.605h0.977
			c-0.491,7.804,0.492,13.17,10.725,13.17h19.027c9.747,0,11.7-2.199,11.7-7.562C801.466,171.18,789.273,174.347,789.273,162.159z
			 M757.576,147.771c-0.484,11.704-8.541,26.821-24.386,26.821c-12.678,0-21.948-11.463-21.948-22.679
			c0-15.359,18.043-32.431,46.334-32.431V147.771z"/>
		<path fill="#E86A81" d="M850.643,161.67V85.348c0-13.411-1.215-18.537-8.779-18.537c-6.826,0-26.092,8.291-29.743,9.266
			c-2.93,0.732-6.343,2.195-6.343,5.858c0,7.311,13.169,4.628,13.169,16.579v63.156c0,16.1-11.463,8.533-11.463,17.806
			c0,4.14,2.684,6.335,9.024,6.335h36.579c6.335,0,9.019-2.195,9.019-6.335C862.104,170.204,850.643,177.769,850.643,161.67z"/>
		<path fill="#E86A81" d="M831.139,55.594c12.432,0,20.233-6.337,20.233-17.066c0-10.486-7.803-17.069-19.258-17.069
			c-12.192,0-20.241,6.583-20.241,17.069C811.873,49.257,819.922,55.594,831.139,55.594z"/>
		<path fill="#E86A81" d="M983.057,162.155V8.775c0-7.315-1.961-8.775-8.778-8.775c-6.827,0-26.831,5.849-30.729,7.317
			c-2.683,0.974-5.85,3.413-5.85,6.823c0,8.291,13.651,5.609,13.651,17.562v44.866c-9.756-6.584-17.805-9.76-29.505-9.76
			c-35.849,0-59.75,28.774-59.75,63.402c0,30.729,15.13,58.035,52.192,58.035c18.035,0,29.506-5.12,39.254-16.82
			c0.738,9.019,0.246,14.385,11.463,14.385h18.051c9.748,0,11.701-2.191,11.701-7.565
			C994.758,172.64,983.057,174.347,983.057,162.155z M951.352,148.748c0,12.192-12.438,22.921-25.606,22.921
			c-16.82,0-29.99-13.656-29.99-44.624s13.17-44.628,29.99-44.628c14.146,0,25.606,8.292,25.606,23.41V148.748z"/>
		<polygon fill="#E86A81" points="484.053,76.635 455.603,76.635 455.603,115.461 416.77,115.461 416.77,143.913 455.603,143.913 
			455.603,182.734 484.053,182.734 484.053,143.913 522.888,143.913 522.888,115.461 484.053,115.461 		"/>
	</g>
</g>
</svg>
